<?xml version="1.0" encoding="UTF-8" standalone="no"?>
<!DOCTYPE svg PUBLIC "-//W3C//DTD SVG 1.1//EN" "http://www.w3.org/Graphics/SVG/1.1/DTD/svg11.dtd">
<svg width="100%" height="100%" viewBox="0 0 229 40" version="1.1" xmlns="http://www.w3.org/2000/svg" xmlns:xlink="http://www.w3.org/1999/xlink" xml:space="preserve" xmlns:serif="http://www.serif.com/" style="fill-rule:evenodd;clip-rule:evenodd;stroke-linejoin:round;stroke-miterlimit:2;">
    <g transform="matrix(2.18346,0,0,2.18346,-502.037,-1816.66)">
        <path d="M287.456,842.808C287.327,842.926 287.19,843.036 287.043,843.14C286.897,843.243 286.743,843.333 286.583,843.409C286.423,843.485 286.258,843.546 286.088,843.591C285.918,843.636 285.745,843.658 285.569,843.658C285.183,843.658 284.819,843.59 284.48,843.453C284.14,843.316 283.842,843.122 283.586,842.87C283.33,842.618 283.129,842.311 282.983,841.95C282.836,841.589 282.763,841.183 282.763,840.734L282.763,837.266L284.357,837.266L284.357,840.734C284.357,840.945 284.389,841.134 284.453,841.3C284.518,841.466 284.605,841.605 284.714,841.719C284.823,841.832 284.951,841.918 285.098,841.976C285.244,842.035 285.402,842.064 285.569,842.064C285.734,842.064 285.889,842.026 286.035,841.95C286.182,841.874 286.31,841.773 286.419,841.648C286.528,841.523 286.614,841.382 286.677,841.224C286.739,841.065 286.771,840.902 286.771,840.734L286.771,837.266L288.37,837.266L288.37,843.541L287.984,843.541L287.456,842.808Z" style="fill:rgb(225,35,60);fill-rule:nonzero;"/>
    </g>
    <g transform="matrix(2.18346,0,0,2.18346,-500.717,-1816.66)">
        <path d="M301.017,840.348C301.017,840.816 300.933,841.253 300.765,841.657C300.597,842.061 300.368,842.411 300.079,842.706C299.79,843.001 299.451,843.233 299.063,843.403C298.674,843.573 298.257,843.658 297.812,843.658C297.37,843.658 296.955,843.573 296.566,843.403C296.178,843.233 295.838,843.001 295.547,842.706C295.256,842.411 295.026,842.061 294.858,841.657C294.69,841.253 294.607,840.816 294.607,840.348C294.607,839.871 294.69,839.43 294.858,839.023C295.026,838.617 295.256,838.266 295.547,837.972C295.838,837.677 296.178,837.445 296.566,837.277C296.955,837.109 297.37,837.025 297.812,837.025C298.257,837.025 298.674,837.104 299.063,837.263C299.451,837.421 299.79,837.645 300.079,837.936C300.368,838.227 300.597,838.577 300.765,838.985C300.933,839.393 301.017,839.848 301.017,840.348ZM299.405,840.348C299.405,840.09 299.363,839.856 299.279,839.647C299.195,839.438 299.081,839.259 298.937,839.108C298.792,838.958 298.623,838.843 298.43,838.763C298.236,838.682 298.03,838.642 297.812,838.642C297.593,838.642 297.387,838.682 297.193,838.763C297,838.843 296.832,838.958 296.69,839.108C296.547,839.259 296.435,839.438 296.353,839.647C296.271,839.856 296.23,840.09 296.23,840.348C296.23,840.59 296.271,840.814 296.353,841.021C296.435,841.228 296.547,841.408 296.69,841.56C296.832,841.713 297,841.833 297.193,841.921C297.387,842.009 297.593,842.053 297.812,842.053C298.03,842.053 298.236,842.012 298.43,841.93C298.623,841.848 298.792,841.732 298.937,841.584C299.081,841.435 299.195,841.256 299.279,841.045C299.363,840.834 299.405,840.601 299.405,840.348Z" style="fill:rgb(9,139,68);fill-rule:nonzero;"/>
    </g>
    <g transform="matrix(0.0416946,0,0,0.215524,117.534,-132.755)">
        <path d="M850.693,649.476L767.701,643.933L684.71,649.476L684.71,661.252L767.701,655.709L850.693,661.252L850.693,649.476Z" style="fill:rgb(9,139,68);"/>
    </g>
    <g transform="matrix(2.18346,0,0,2.18346,-502.683,-1816.66)">
        <path d="M282.844,840.183C282.844,840.648 282.756,841.085 282.58,841.493C282.404,841.901 282.165,842.257 281.862,842.559C281.56,842.862 281.204,843.101 280.796,843.277C280.388,843.453 279.951,843.541 279.486,843.541C279.205,843.541 278.924,843.506 278.643,843.435L278.643,841.631C278.768,841.705 278.902,841.762 279.047,841.801C279.191,841.84 279.338,841.859 279.486,841.859C279.717,841.859 279.935,841.815 280.14,841.727C280.345,841.64 280.523,841.519 280.676,841.367C280.828,841.215 280.948,841.037 281.036,840.834C281.124,840.631 281.168,840.414 281.168,840.183L281.168,834.769L282.844,834.769L282.844,840.183Z" style="fill:rgb(13,94,166);fill-rule:nonzero;"/>
    </g>
    <g transform="matrix(2.18346,0,0,2.18346,-501.639,-1816.66)">
        <path d="M294.813,843.541L294.427,843.541L293.806,842.68C293.653,842.816 293.492,842.944 293.322,843.063C293.152,843.182 292.974,843.286 292.786,843.374C292.599,843.462 292.406,843.531 292.209,843.582C292.012,843.633 291.812,843.658 291.608,843.658C291.167,843.658 290.752,843.575 290.363,843.409C289.975,843.243 289.635,843.013 289.344,842.718C289.053,842.423 288.823,842.073 288.655,841.669C288.487,841.265 288.403,840.824 288.403,840.348C288.403,839.875 288.487,839.435 288.655,839.029C288.823,838.623 289.053,838.271 289.344,837.974C289.635,837.678 289.975,837.445 290.363,837.277C290.752,837.109 291.167,837.025 291.608,837.025C291.749,837.025 291.895,837.037 292.045,837.06C292.195,837.084 292.342,837.122 292.484,837.175C292.627,837.227 292.761,837.297 292.886,837.383C293.011,837.469 293.116,837.574 293.202,837.699L293.202,834.769L294.813,834.769L294.813,843.541ZM293.202,840.348C293.202,840.129 293.16,839.917 293.076,839.712C292.992,839.507 292.878,839.325 292.733,839.167C292.589,839.009 292.42,838.882 292.227,838.786C292.033,838.69 291.827,838.642 291.608,838.642C291.39,838.642 291.184,838.682 290.99,838.76C290.797,838.838 290.629,838.95 290.486,839.097C290.344,839.243 290.231,839.422 290.149,839.633C290.067,839.844 290.026,840.082 290.026,840.348C290.026,840.578 290.067,840.797 290.149,841.004C290.231,841.211 290.344,841.392 290.486,841.549C290.629,841.705 290.797,841.828 290.99,841.918C291.184,842.008 291.39,842.053 291.608,842.053C291.827,842.053 292.033,842.005 292.227,841.909C292.42,841.813 292.589,841.686 292.733,841.528C292.878,841.37 292.992,841.188 293.076,840.983C293.16,840.778 293.202,840.566 293.202,840.348Z" style="fill:rgb(229,104,37);fill-rule:nonzero;"/>
    </g>
    <g transform="matrix(0.636301,0,0,0.636301,-69.7876,-503.899)">
        <path d="M278.842,833.685C278.928,833.56 279.031,833.523 279.152,833.574C279.273,833.625 279.387,833.703 279.492,833.808C279.598,833.914 279.682,834.019 279.744,834.125C279.807,834.23 279.822,834.279 279.791,834.271L284.092,841.619C284.115,841.502 284.137,841.312 284.156,841.051C284.176,840.789 284.189,840.48 284.197,840.125C284.205,839.769 284.207,839.381 284.203,838.959C284.199,838.537 284.191,838.115 284.18,837.693C284.168,837.271 284.15,836.857 284.127,836.451C284.103,836.045 284.076,835.68 284.045,835.355C284.014,835.031 283.978,834.762 283.939,834.547C283.9,834.332 283.853,834.201 283.799,834.154C283.799,834.029 283.822,833.91 283.869,833.797C283.916,833.683 284.01,833.627 284.15,833.627C284.283,833.627 284.393,833.705 284.478,833.861C284.564,834.017 284.631,834.193 284.678,834.389C284.725,834.584 284.758,834.775 284.777,834.963C284.797,835.15 284.807,835.271 284.807,835.326C284.814,835.482 284.82,835.73 284.824,836.07C284.828,836.41 284.832,836.799 284.836,837.236C284.84,837.674 284.844,838.133 284.848,838.613C284.852,839.094 284.855,839.553 284.859,839.99C284.863,840.428 284.865,840.818 284.865,841.162C284.865,841.506 284.869,841.756 284.877,841.912C284.885,842.131 284.914,842.322 284.965,842.486C285.016,842.65 285.041,842.838 285.041,843.049C285.041,843.221 284.977,843.349 284.848,843.435C284.719,843.521 284.576,843.564 284.42,843.564C284.334,843.564 284.258,843.553 284.191,843.529C284.125,843.506 284.072,843.467 284.033,843.412C283.994,843.357 283.973,843.285 283.969,843.195C283.965,843.105 283.982,842.994 284.021,842.861C283.881,842.697 283.701,842.422 283.482,842.035C283.264,841.648 283.023,841.211 282.762,840.723C282.5,840.234 282.227,839.721 281.941,839.182C281.656,838.642 281.383,838.133 281.121,837.652C280.859,837.172 280.615,836.752 280.389,836.392C280.162,836.033 279.978,835.787 279.838,835.654C279.799,836.162 279.787,836.75 279.803,837.418C279.818,838.086 279.846,838.769 279.885,839.469C279.924,840.168 279.965,840.849 280.008,841.514C280.051,842.178 280.072,842.764 280.072,843.271C280.072,843.435 280.025,843.539 279.932,843.582C279.838,843.625 279.74,843.635 279.639,843.611C279.537,843.588 279.451,843.547 279.381,843.488C279.31,843.43 279.299,843.385 279.346,843.353L278.842,833.685Z" style="fill:rgb(13,94,166);fill-rule:nonzero;"/>
    </g>
    <g transform="matrix(0.636301,0,0,0.636301,-69.7876,-503.899)">
        <path d="M285.357,843.541C285.412,843.361 285.5,843.064 285.621,842.65C285.742,842.236 285.9,841.644 286.096,840.875C286.291,840.105 286.531,839.127 286.816,837.939C287.102,836.752 287.435,835.291 287.818,833.557C287.865,833.478 287.932,833.426 288.018,833.398C288.103,833.371 288.189,833.363 288.275,833.375C288.361,833.387 288.434,833.414 288.492,833.457C288.551,833.5 288.576,833.549 288.568,833.603L290.877,839.217L292.072,838.853C292.174,838.853 292.26,838.881 292.33,838.935C292.4,838.99 292.439,839.057 292.447,839.135C292.455,839.213 292.428,839.297 292.365,839.387C292.303,839.476 292.193,839.549 292.037,839.603C291.975,839.627 291.893,839.652 291.791,839.68C291.689,839.707 291.588,839.732 291.486,839.756C291.385,839.779 291.299,839.803 291.228,839.826C291.158,839.849 291.123,839.873 291.123,839.896L292.424,843.365C292.408,843.404 292.393,843.453 292.377,843.512C292.361,843.57 292.33,843.617 292.283,843.652C292.236,843.687 292.166,843.699 292.072,843.687C291.978,843.676 291.846,843.619 291.674,843.517L290.326,840.072C290.162,840.119 289.959,840.164 289.717,840.207C289.475,840.25 289.221,840.293 288.955,840.336C288.689,840.379 288.422,840.43 288.152,840.488C287.883,840.547 287.635,840.619 287.408,840.705C287.182,840.791 286.99,840.894 286.834,841.016C286.678,841.137 286.584,841.283 286.553,841.455C286.537,841.564 286.508,841.744 286.465,841.994C286.422,842.244 286.381,842.494 286.342,842.744C286.295,843.041 286.24,843.361 286.178,843.705C286.037,843.846 285.91,843.892 285.797,843.846C285.684,843.799 285.537,843.697 285.357,843.541ZM288.299,834.846L287.057,840.06C287.189,840.014 287.373,839.963 287.607,839.908C287.842,839.853 288.096,839.795 288.369,839.732C288.643,839.67 288.918,839.607 289.195,839.545C289.473,839.482 289.725,839.416 289.951,839.346L288.299,834.846Z" style="fill:rgb(13,94,166);fill-rule:nonzero;"/>
    </g>
    <g transform="matrix(0.636301,0,0,0.636301,-69.7876,-503.899)">
        <path d="M293.631,843.189C293.639,843.142 293.75,843.084 293.965,843.014C294.18,842.943 294.447,842.859 294.768,842.762C295.088,842.664 295.443,842.551 295.834,842.422C296.225,842.293 296.602,842.146 296.965,841.982C297.328,841.818 297.654,841.637 297.943,841.437C298.232,841.238 298.443,841.017 298.576,840.775C298.576,840.65 298.49,840.553 298.318,840.482C298.146,840.412 297.92,840.353 297.639,840.307C297.357,840.26 297.037,840.221 296.678,840.189C296.318,840.158 295.949,840.115 295.57,840.06C295.191,840.006 294.822,839.935 294.463,839.849C294.103,839.764 293.783,839.644 293.502,839.492C293.221,839.34 292.994,839.148 292.822,838.918C292.65,838.687 292.564,838.4 292.564,838.057C292.564,837.721 292.641,837.379 292.793,837.031C292.945,836.683 293.146,836.346 293.396,836.017C293.646,835.689 293.934,835.381 294.258,835.092C294.582,834.803 294.92,834.549 295.271,834.33C295.623,834.111 295.971,833.939 296.314,833.814C296.658,833.689 296.978,833.627 297.275,833.627C297.353,833.627 297.435,833.625 297.521,833.621C297.607,833.617 297.684,833.623 297.75,833.639C297.816,833.654 297.871,833.687 297.914,833.738C297.957,833.789 297.978,833.865 297.978,833.967C297.978,834.217 297.896,834.396 297.732,834.506C297.568,834.615 297.369,834.67 297.135,834.67L296.631,834.506C296.435,834.506 296.215,834.562 295.969,834.676C295.723,834.789 295.475,834.941 295.225,835.133C294.975,835.324 294.73,835.543 294.492,835.789C294.254,836.035 294.043,836.289 293.859,836.551C293.676,836.812 293.527,837.074 293.414,837.336C293.301,837.598 293.244,837.834 293.244,838.045C293.244,838.31 293.33,838.527 293.502,838.695C293.674,838.863 293.9,838.998 294.182,839.099C294.463,839.201 294.785,839.277 295.148,839.328C295.512,839.379 295.881,839.424 296.256,839.463C296.631,839.502 297,839.545 297.363,839.592C297.727,839.639 298.049,839.703 298.33,839.785C298.611,839.867 298.838,839.98 299.01,840.125C299.182,840.269 299.268,840.463 299.268,840.705C299.268,840.939 299.174,841.174 298.986,841.408C298.799,841.642 298.553,841.867 298.248,842.082C297.943,842.297 297.594,842.496 297.199,842.68C296.805,842.863 296.408,843.019 296.01,843.148C295.611,843.277 295.223,843.377 294.844,843.447C294.465,843.517 294.139,843.549 293.865,843.541C293.787,843.541 293.721,843.514 293.666,843.459C293.611,843.404 293.6,843.314 293.631,843.189Z" style="fill:rgb(13,94,166);fill-rule:nonzero;"/>
    </g>
    <g transform="matrix(0.636301,0,0,0.636301,-69.7876,-503.899)">
        <path d="M306.088,843.283C306.088,842.533 306.102,841.767 306.129,840.986C306.156,840.205 306.168,839.418 306.164,838.625C306.16,837.832 306.127,837.045 306.064,836.264C306.002,835.482 305.885,834.717 305.713,833.967C305.713,833.928 305.728,833.879 305.76,833.82C305.791,833.762 305.83,833.709 305.877,833.662C305.924,833.615 305.977,833.578 306.035,833.551C306.094,833.523 306.154,833.521 306.217,833.545C306.318,833.584 306.402,833.66 306.469,833.773C306.535,833.887 306.586,834.01 306.621,834.142C306.656,834.275 306.68,834.402 306.691,834.523C306.703,834.644 306.709,834.732 306.709,834.787L311.221,833.662C311.291,833.678 311.348,833.719 311.391,833.785C311.434,833.851 311.453,833.926 311.449,834.008C311.445,834.09 311.418,834.17 311.367,834.248C311.316,834.326 311.24,834.381 311.139,834.412L306.697,835.619C306.697,836.127 306.711,836.631 306.738,837.131C306.766,837.631 306.799,838.139 306.838,838.654L310.096,837.517C310.096,837.517 310.119,837.494 310.166,837.447C310.213,837.4 310.269,837.361 310.336,837.33C310.402,837.299 310.473,837.287 310.547,837.295C310.621,837.303 310.693,837.361 310.764,837.471C310.764,837.627 310.67,837.769 310.482,837.898C310.295,838.027 310.062,838.146 309.785,838.256C309.508,838.365 309.207,838.469 308.883,838.566C308.559,838.664 308.258,838.764 307.98,838.865C307.703,838.967 307.471,839.07 307.283,839.176C307.096,839.281 307.002,839.392 307.002,839.51L306.92,842.592C307.037,842.662 307.207,842.683 307.43,842.656C307.652,842.629 307.9,842.576 308.174,842.498C308.447,842.42 308.736,842.324 309.041,842.211C309.346,842.098 309.639,841.99 309.92,841.889C310.201,841.787 310.461,841.697 310.699,841.619C310.937,841.541 311.131,841.498 311.279,841.49C311.35,841.498 311.412,841.523 311.467,841.566C311.521,841.609 311.56,841.658 311.584,841.713C311.607,841.767 311.609,841.824 311.59,841.883C311.57,841.941 311.518,841.99 311.432,842.029C311.127,842.162 310.76,842.31 310.33,842.474C309.9,842.639 309.457,842.797 309,842.949C308.543,843.101 308.1,843.234 307.67,843.348C307.24,843.461 306.877,843.529 306.58,843.553C306.471,843.537 306.383,843.512 306.316,843.476C306.25,843.441 306.174,843.377 306.088,843.283Z" style="fill:rgb(13,94,166);fill-rule:nonzero;"/>
    </g>
    <g transform="matrix(0.636301,0,0,0.636301,-69.7876,-503.899)">
        <path d="M312.744,843.189C312.752,843.142 312.863,843.084 313.078,843.014C313.293,842.943 313.56,842.859 313.881,842.762C314.201,842.664 314.557,842.551 314.947,842.422C315.338,842.293 315.715,842.146 316.078,841.982C316.441,841.818 316.768,841.637 317.057,841.437C317.346,841.238 317.557,841.017 317.689,840.775C317.689,840.65 317.603,840.553 317.432,840.482C317.26,840.412 317.033,840.353 316.752,840.307C316.471,840.26 316.15,840.221 315.791,840.189C315.432,840.158 315.062,840.115 314.684,840.06C314.305,840.006 313.935,839.935 313.576,839.849C313.217,839.764 312.896,839.644 312.615,839.492C312.334,839.34 312.107,839.148 311.935,838.918C311.764,838.687 311.678,838.4 311.678,838.057C311.678,837.721 311.754,837.379 311.906,837.031C312.059,836.683 312.26,836.346 312.51,836.017C312.76,835.689 313.047,835.381 313.371,835.092C313.695,834.803 314.033,834.549 314.385,834.33C314.736,834.111 315.084,833.939 315.428,833.814C315.771,833.689 316.092,833.627 316.389,833.627C316.467,833.627 316.549,833.625 316.635,833.621C316.721,833.617 316.797,833.623 316.863,833.639C316.93,833.654 316.984,833.687 317.027,833.738C317.07,833.789 317.092,833.865 317.092,833.967C317.092,834.217 317.01,834.396 316.846,834.506C316.682,834.615 316.482,834.67 316.248,834.67L315.744,834.506C315.549,834.506 315.328,834.562 315.082,834.676C314.836,834.789 314.588,834.941 314.338,835.133C314.088,835.324 313.844,835.543 313.605,835.789C313.367,836.035 313.156,836.289 312.973,836.551C312.789,836.812 312.641,837.074 312.527,837.336C312.414,837.598 312.357,837.834 312.357,838.045C312.357,838.31 312.443,838.527 312.615,838.695C312.787,838.863 313.014,838.998 313.295,839.099C313.576,839.201 313.898,839.277 314.262,839.328C314.625,839.379 314.994,839.424 315.369,839.463C315.744,839.502 316.113,839.545 316.477,839.592C316.84,839.639 317.162,839.703 317.443,839.785C317.725,839.867 317.951,839.98 318.123,840.125C318.295,840.269 318.381,840.463 318.381,840.705C318.381,840.939 318.287,841.174 318.1,841.408C317.912,841.642 317.666,841.867 317.361,842.082C317.057,842.297 316.707,842.496 316.312,842.68C315.918,842.863 315.521,843.019 315.123,843.148C314.725,843.277 314.336,843.377 313.957,843.447C313.578,843.517 313.252,843.549 312.978,843.541C312.9,843.541 312.834,843.514 312.779,843.459C312.725,843.404 312.713,843.314 312.744,843.189Z" style="fill:rgb(13,94,166);fill-rule:nonzero;"/>
    </g>
    <g transform="matrix(0.636301,0,0,0.636301,-69.7876,-503.899)">
        <path d="M318.967,841.209C318.967,840.928 318.996,840.545 319.055,840.06C319.113,839.576 319.199,839.053 319.312,838.49C319.426,837.928 319.572,837.359 319.752,836.785C319.932,836.211 320.143,835.691 320.385,835.226C320.627,834.762 320.902,834.381 321.211,834.084C321.519,833.787 321.861,833.639 322.236,833.639C322.447,833.639 322.629,833.678 322.781,833.756C322.934,833.834 323.06,833.939 323.162,834.072C323.264,834.205 323.338,834.357 323.385,834.529C323.432,834.701 323.455,834.885 323.455,835.08C323.244,835.182 323.084,835.205 322.975,835.15C322.865,835.096 322.777,835.012 322.711,834.898C322.644,834.785 322.58,834.666 322.518,834.541C322.455,834.416 322.365,834.338 322.248,834.307C321.967,834.307 321.709,834.441 321.475,834.711C321.24,834.98 321.029,835.322 320.842,835.736C320.654,836.15 320.49,836.611 320.35,837.119C320.209,837.627 320.092,838.121 319.998,838.601C319.904,839.082 319.834,839.517 319.787,839.908C319.74,840.299 319.717,840.588 319.717,840.775C319.717,841.025 319.727,841.266 319.746,841.496C319.766,841.726 319.816,841.932 319.898,842.111C319.98,842.291 320.103,842.433 320.268,842.539C320.432,842.644 320.662,842.697 320.959,842.697C321.31,842.697 321.656,842.596 321.996,842.392C322.336,842.189 322.648,841.935 322.934,841.631C323.219,841.326 323.469,841 323.684,840.652C323.898,840.305 324.053,839.99 324.146,839.709C324.162,839.701 324.201,839.695 324.264,839.691C324.326,839.687 324.365,839.685 324.381,839.685C324.482,839.685 324.58,839.697 324.674,839.721C324.768,839.744 324.814,839.822 324.814,839.955C324.76,840.236 324.637,840.531 324.445,840.84C324.254,841.148 324.027,841.449 323.766,841.742C323.504,842.035 323.219,842.308 322.91,842.562C322.602,842.816 322.299,843.029 322.002,843.201C321.705,843.373 321.43,843.492 321.176,843.558C320.922,843.625 320.717,843.619 320.56,843.541C320.279,843.541 320.037,843.461 319.834,843.301C319.631,843.141 319.465,842.943 319.336,842.709C319.207,842.474 319.113,842.223 319.055,841.953C318.996,841.683 318.967,841.435 318.967,841.209Z" style="fill:rgb(13,94,166);fill-rule:nonzero;"/>
    </g>
    <g transform="matrix(0.636301,0,0,0.636301,-69.7876,-503.899)">
        <path d="M325.236,840.576C325.228,839.592 325.33,838.695 325.541,837.887C325.752,837.078 326.029,836.373 326.373,835.771C326.717,835.17 327.102,834.683 327.527,834.312C327.953,833.941 328.377,833.705 328.799,833.603C329.221,833.502 329.619,833.541 329.994,833.721C330.369,833.9 330.674,834.24 330.908,834.74C331.119,835.185 331.264,835.703 331.342,836.293C331.42,836.883 331.434,837.492 331.383,838.121C331.332,838.75 331.217,839.369 331.037,839.978C330.857,840.588 330.613,841.141 330.305,841.637C329.996,842.133 329.627,842.543 329.197,842.867C328.768,843.191 328.275,843.381 327.721,843.435C327.283,843.459 326.908,843.371 326.596,843.172C326.283,842.973 326.027,842.723 325.828,842.422C325.629,842.121 325.48,841.801 325.383,841.461C325.285,841.121 325.236,840.826 325.236,840.576ZM327.721,834.904C327.588,835.014 327.439,835.205 327.275,835.478C327.111,835.752 326.951,836.078 326.795,836.457C326.639,836.836 326.496,837.248 326.367,837.693C326.238,838.139 326.137,838.588 326.062,839.041C325.988,839.494 325.953,839.935 325.957,840.365C325.961,840.795 326.021,841.183 326.139,841.531C326.256,841.879 326.435,842.168 326.678,842.398C326.92,842.629 327.244,842.771 327.65,842.826C327.963,842.865 328.277,842.764 328.594,842.521C328.91,842.279 329.201,841.951 329.467,841.537C329.732,841.123 329.965,840.652 330.164,840.125C330.363,839.598 330.51,839.072 330.603,838.549C330.682,838.08 330.721,837.621 330.721,837.172C330.721,836.723 330.678,836.31 330.592,835.935C330.506,835.56 330.381,835.236 330.217,834.963C330.053,834.689 329.85,834.494 329.607,834.377C329.365,834.26 329.086,834.238 328.769,834.312C328.453,834.387 328.103,834.584 327.721,834.904Z" style="fill:rgb(13,94,166);fill-rule:nonzero;"/>
    </g>
    <g transform="matrix(0.636301,0,0,0.636301,-69.7876,-503.899)">
        <path d="M332.256,843.037C332.232,841.365 332.205,839.973 332.174,838.859C332.143,837.746 332.115,836.844 332.092,836.152C332.068,835.461 332.049,834.949 332.033,834.617C332.018,834.285 332.01,834.068 332.01,833.967C332.01,833.849 332.043,833.756 332.109,833.685C332.176,833.615 332.248,833.582 332.326,833.586C332.404,833.59 332.478,833.633 332.549,833.715C332.619,833.797 332.658,833.928 332.666,834.107L333.041,842.697L338.127,841.619C338.65,841.619 338.764,841.842 338.467,842.287L332.584,843.541C332.365,843.541 332.256,843.373 332.256,843.037Z" style="fill:rgb(13,94,166);fill-rule:nonzero;"/>
    </g>
    <g transform="matrix(0.636301,0,0,0.636301,-69.7876,-503.899)">
        <path d="M338.771,843.541C338.826,843.361 338.914,843.064 339.035,842.65C339.156,842.236 339.314,841.644 339.51,840.875C339.705,840.105 339.945,839.127 340.23,837.939C340.516,836.752 340.85,835.291 341.232,833.557C341.279,833.478 341.346,833.426 341.432,833.398C341.518,833.371 341.603,833.363 341.689,833.375C341.775,833.387 341.848,833.414 341.906,833.457C341.965,833.5 341.99,833.549 341.982,833.603L344.291,839.217L345.486,838.853C345.588,838.853 345.674,838.881 345.744,838.935C345.814,838.99 345.853,839.057 345.861,839.135C345.869,839.213 345.842,839.297 345.779,839.387C345.717,839.476 345.607,839.549 345.451,839.603C345.389,839.627 345.307,839.652 345.205,839.68C345.103,839.707 345.002,839.732 344.9,839.756C344.799,839.779 344.713,839.803 344.643,839.826C344.572,839.849 344.537,839.873 344.537,839.896L345.838,843.365C345.822,843.404 345.807,843.453 345.791,843.512C345.775,843.57 345.744,843.617 345.697,843.652C345.65,843.687 345.58,843.699 345.486,843.687C345.393,843.676 345.26,843.619 345.088,843.517L343.74,840.072C343.576,840.119 343.373,840.164 343.131,840.207C342.889,840.25 342.635,840.293 342.369,840.336C342.103,840.379 341.836,840.43 341.566,840.488C341.297,840.547 341.049,840.619 340.822,840.705C340.596,840.791 340.404,840.894 340.248,841.016C340.092,841.137 339.998,841.283 339.967,841.455C339.951,841.564 339.922,841.744 339.879,841.994C339.836,842.244 339.795,842.494 339.756,842.744C339.709,843.041 339.654,843.361 339.592,843.705C339.451,843.846 339.324,843.892 339.211,843.846C339.098,843.799 338.951,843.697 338.771,843.541ZM341.713,834.846L340.471,840.06C340.603,840.014 340.787,839.963 341.021,839.908C341.256,839.853 341.51,839.795 341.783,839.732C342.057,839.67 342.332,839.607 342.609,839.545C342.887,839.482 343.139,839.416 343.365,839.346L341.713,834.846Z" style="fill:rgb(13,94,166);fill-rule:nonzero;"/>
    </g>
    <g transform="matrix(0.636301,0,0,0.636301,-69.7876,-503.899)">
        <path d="M347.045,843.189C347.053,843.142 347.164,843.084 347.379,843.014C347.594,842.943 347.861,842.859 348.182,842.762C348.502,842.664 348.857,842.551 349.248,842.422C349.639,842.293 350.016,842.146 350.379,841.982C350.742,841.818 351.068,841.637 351.357,841.437C351.646,841.238 351.857,841.017 351.99,840.775C351.99,840.65 351.904,840.553 351.732,840.482C351.56,840.412 351.334,840.353 351.053,840.307C350.771,840.26 350.451,840.221 350.092,840.189C349.732,840.158 349.363,840.115 348.984,840.06C348.605,840.006 348.236,839.935 347.877,839.849C347.518,839.764 347.197,839.644 346.916,839.492C346.635,839.34 346.408,839.148 346.236,838.918C346.064,838.687 345.978,838.4 345.978,838.057C345.978,837.721 346.055,837.379 346.207,837.031C346.359,836.683 346.56,836.346 346.81,836.017C347.06,835.689 347.348,835.381 347.672,835.092C347.996,834.803 348.334,834.549 348.685,834.33C349.037,834.111 349.385,833.939 349.728,833.814C350.072,833.689 350.393,833.627 350.689,833.627C350.768,833.627 350.85,833.625 350.935,833.621C351.021,833.617 351.098,833.623 351.164,833.639C351.23,833.654 351.285,833.687 351.328,833.738C351.371,833.789 351.393,833.865 351.393,833.967C351.393,834.217 351.31,834.396 351.146,834.506C350.982,834.615 350.783,834.67 350.549,834.67L350.045,834.506C349.85,834.506 349.629,834.562 349.383,834.676C349.137,834.789 348.889,834.941 348.639,835.133C348.389,835.324 348.144,835.543 347.906,835.789C347.668,836.035 347.457,836.289 347.273,836.551C347.09,836.812 346.941,837.074 346.828,837.336C346.715,837.598 346.658,837.834 346.658,838.045C346.658,838.31 346.744,838.527 346.916,838.695C347.088,838.863 347.314,838.998 347.596,839.099C347.877,839.201 348.199,839.277 348.562,839.328C348.926,839.379 349.295,839.424 349.67,839.463C350.045,839.502 350.414,839.545 350.777,839.592C351.141,839.639 351.463,839.703 351.744,839.785C352.025,839.867 352.252,839.98 352.424,840.125C352.596,840.269 352.682,840.463 352.682,840.705C352.682,840.939 352.588,841.174 352.4,841.408C352.213,841.642 351.967,841.867 351.662,842.082C351.357,842.297 351.008,842.496 350.613,842.68C350.219,842.863 349.822,843.019 349.424,843.148C349.025,843.277 348.637,843.377 348.258,843.447C347.879,843.517 347.553,843.549 347.279,843.541C347.201,843.541 347.135,843.514 347.08,843.459C347.025,843.404 347.014,843.314 347.045,843.189Z" style="fill:rgb(13,94,166);fill-rule:nonzero;"/>
    </g>
    <g transform="matrix(0.0398342,0,0,0.0398342,42.0582,-30.4724)">
        <g id="path874" transform="matrix(3.65244,0,0,3.65244,-812.219,556.219)">
            <path d="M498.635,241.375C497.548,241.608 496.642,242.02 495.163,242.745C490.002,245.27 485.925,249.8 482.59,256.714C479.744,262.612 477.822,264.59 473.725,265.836C471.228,266.595 466.961,266.177 464.554,264.937C460.005,262.593 457.563,258.561 457.563,253.392C457.563,249.479 458.069,248.349 462.136,243.167C468.156,235.5 471.126,227.732 471.142,219.624C471.143,219.344 471.14,219.067 471.134,218.79L487.976,216.275L481.76,232.011L494.392,237.001L501.435,219.173L504.856,223.476C503.084,229.891 500.921,235.908 498.635,241.375ZM509.055,199.396C509.286,195.973 509.354,192.503 509.232,188.998C508.917,179.973 507.253,171.822 504.801,164.565C503.521,165.096 502.14,165.587 500.616,166.075C491.52,168.988 480.622,169.257 468.753,166.859C464.442,165.988 453.818,162.482 448.418,160.147C444.809,158.587 441.572,158.403 438.162,159.565C431.465,161.847 427.472,169.536 429.531,176.184C431.174,181.488 434.199,184.238 440.521,186.173C449.536,188.932 457.338,193.544 462.794,199.339C464.728,201.392 466.303,203.459 467.543,205.594L509.055,199.396ZM483.709,130.346C473.927,135.841 471.174,147.701 478.226,155.545C481.228,158.884 484.775,160.439 489.962,160.691C492.929,160.836 494.552,160.633 496.641,159.857C498.577,159.139 500.323,158.178 501.849,157.017C496.607,145.272 489.517,136.351 483.709,130.346Z" style="fill:rgb(13,94,166);fill-rule:nonzero;"/>
        </g>
        <g id="path8741" serif:id="path874" transform="matrix(3.65244,0,0,3.65244,-812.219,556.219)">
            <path d="M519.308,208.646L547.652,212.878L534.486,229.435L548.62,240.673L563.637,221.788L573.001,245.49L589.795,238.855L581.53,217.935L603.922,221.278C603.914,221.646 603.91,222.015 603.911,222.387C603.932,233.166 607.881,243.494 615.884,253.687C621.292,260.576 621.964,262.079 621.964,267.281C621.964,274.153 618.718,279.515 612.67,282.63C609.469,284.279 603.796,284.835 600.476,283.825C595.03,282.169 592.475,279.54 588.691,271.697C584.256,262.505 578.836,256.484 571.976,253.126C567.659,251.013 567.018,250.899 559.437,250.899C549.539,250.899 544.108,252.492 534.861,258.103C529.208,261.535 528.028,261.981 523.977,262.227C514.181,262.822 507.007,256.243 507.078,246.731C507.105,243.12 507.631,241.486 511.01,234.517C515.078,226.127 517.835,217.422 519.308,208.646ZM520.539,190.573C519.92,170.581 512.731,151.063 499.308,134.868C490.658,124.434 490.361,123.893 490.066,118.05C489.753,111.844 491.003,108.028 494.545,104.381C501.276,97.45 512.111,96.628 519.208,102.51C520.633,103.691 526.071,111.389 531.862,120.424C545.725,142.052 550.685,146.696 564.726,151.194C576.818,155.067 591.307,155.424 607.087,152.237C612.819,151.079 626.942,146.417 634.122,143.313C638.92,141.238 643.224,140.994 647.758,142.539C656.661,145.573 661.97,155.795 659.232,164.634C657.048,171.686 653.026,175.341 644.621,177.914C632.636,181.582 622.264,187.714 615.009,195.418C612.438,198.148 610.344,200.895 608.696,203.734L520.539,190.573ZM570.01,142.928C560.717,139.478 554.695,131.83 554.036,122.639C553.41,113.93 557.644,106.635 565.541,102.812C568.912,101.18 570.401,100.888 575.416,100.878C580.355,100.867 581.967,101.165 585.264,102.698C599.826,109.469 604.319,126.265 594.493,137.194C590.501,141.634 585.786,143.701 578.89,144.037C574.945,144.228 572.788,143.959 570.01,142.928Z" style="fill:rgb(229,104,37);fill-rule:nonzero;"/>
        </g>
    </g>
</svg>
