<?xml version="1.0" encoding="UTF-8" standalone="no"?>
<!DOCTYPE svg PUBLIC "-//W3C//DTD SVG 1.1//EN" "http://www.w3.org/Graphics/SVG/1.1/DTD/svg11.dtd">
<svg width="100%" height="100%" viewBox="0 0 512 512" version="1.1" xmlns="http://www.w3.org/2000/svg" xmlns:xlink="http://www.w3.org/1999/xlink" xml:space="preserve" xmlns:serif="http://www.serif.com/" style="fill-rule:evenodd;clip-rule:evenodd;stroke-linejoin:round;stroke-miterlimit:2;">
    <g transform="matrix(0.553116,0,0,0.553116,-394.7,-438.444)">
        <g id="path874" transform="matrix(3.65244,0,0,3.65244,-812.219,556.219)">
            <path d="M498.635,241.375C497.548,241.608 496.642,242.02 495.163,242.745C490.002,245.27 485.925,249.8 482.59,256.714C479.744,262.612 477.822,264.59 473.725,265.836C471.228,266.595 466.961,266.177 464.554,264.937C460.005,262.593 457.563,258.561 457.563,253.392C457.563,249.479 458.069,248.349 462.136,243.167C468.156,235.5 471.126,227.732 471.142,219.624C471.143,219.344 471.14,219.067 471.134,218.79L487.976,216.275L481.76,232.011L494.392,237.001L501.435,219.173L504.856,223.476C503.084,229.891 500.921,235.908 498.635,241.375ZM509.055,199.396C509.286,195.973 509.354,192.503 509.232,188.998C508.917,179.973 507.253,171.822 504.801,164.565C503.521,165.096 502.14,165.587 500.616,166.075C491.52,168.988 480.622,169.257 468.753,166.859C464.442,165.988 453.818,162.482 448.418,160.147C444.809,158.587 441.572,158.403 438.162,159.565C431.465,161.847 427.472,169.536 429.531,176.184C431.174,181.488 434.199,184.238 440.521,186.173C449.536,188.932 457.338,193.544 462.794,199.339C464.728,201.392 466.303,203.459 467.543,205.594L509.055,199.396ZM483.709,130.346C473.927,135.841 471.174,147.701 478.226,155.545C481.228,158.884 484.775,160.439 489.962,160.691C492.929,160.836 494.552,160.633 496.641,159.857C498.577,159.139 500.323,158.178 501.849,157.017C496.607,145.272 489.517,136.351 483.709,130.346Z" style="fill:rgb(13,94,166);fill-rule:nonzero;"/>
        </g>
        <g id="path8741" serif:id="path874" transform="matrix(3.65244,0,0,3.65244,-812.219,556.219)">
            <path d="M519.308,208.646L547.652,212.878L534.486,229.435L548.62,240.673L563.637,221.788L573.001,245.49L589.795,238.855L581.53,217.935L603.922,221.278C603.914,221.646 603.91,222.015 603.911,222.387C603.932,233.166 607.881,243.494 615.884,253.687C621.292,260.576 621.964,262.079 621.964,267.281C621.964,274.153 618.718,279.515 612.67,282.63C609.469,284.279 603.796,284.835 600.476,283.825C595.03,282.169 592.475,279.54 588.691,271.697C584.256,262.505 578.836,256.484 571.976,253.126C567.659,251.013 567.018,250.899 559.437,250.899C549.539,250.899 544.108,252.492 534.861,258.103C529.208,261.535 528.028,261.981 523.977,262.227C514.181,262.822 507.007,256.243 507.078,246.731C507.105,243.12 507.631,241.486 511.01,234.517C515.078,226.127 517.835,217.422 519.308,208.646ZM520.539,190.573C519.92,170.581 512.731,151.063 499.308,134.868C490.658,124.434 490.361,123.893 490.066,118.05C489.753,111.844 491.003,108.028 494.545,104.381C501.276,97.45 512.111,96.628 519.208,102.51C520.633,103.691 526.071,111.389 531.862,120.424C545.725,142.052 550.685,146.696 564.726,151.194C576.818,155.067 591.307,155.424 607.087,152.237C612.819,151.079 626.942,146.417 634.122,143.313C638.92,141.238 643.224,140.994 647.758,142.539C656.661,145.573 661.97,155.795 659.232,164.634C657.048,171.686 653.026,175.341 644.621,177.914C632.636,181.582 622.264,187.714 615.009,195.418C612.438,198.148 610.344,200.895 608.696,203.734L520.539,190.573ZM570.01,142.928C560.717,139.478 554.695,131.83 554.036,122.639C553.41,113.93 557.644,106.635 565.541,102.812C568.912,101.18 570.401,100.888 575.416,100.878C580.355,100.867 581.967,101.165 585.264,102.698C599.826,109.469 604.319,126.265 594.493,137.194C590.501,141.634 585.786,143.701 578.89,144.037C574.945,144.228 572.788,143.959 570.01,142.928Z" style="fill:rgb(229,104,37);fill-rule:nonzero;"/>
        </g>
    </g>
</svg>
